<?xml version="1.0" standalone="no"?>
<!DOCTYPE svg PUBLIC "-//W3C//DTD SVG 20010904//EN"
 "http://www.w3.org/TR/2001/REC-SVG-20010904/DTD/svg10.dtd">
<svg version="1.0" xmlns="http://www.w3.org/2000/svg"
 width="512.000000pt" height="512.000000pt" viewBox="0 0 512.000000 512.000000"
 preserveAspectRatio="xMidYMid meet">
<metadata>
Created by potrace 1.14, written by Peter Selinger 2001-2017
</metadata>
<g transform="translate(0.000000,512.000000) scale(0.100000,-0.100000)"
fill="#000000" stroke="none">
<path d="M1789 5105 c-67 -21 -138 -72 -181 -130 -31 -41 -54 -101 -133 -340
-52 -159 -98 -308 -103 -330 -20 -92 17 -227 81 -298 l26 -29 -19 -46 c-29
-75 -302 -764 -410 -1037 -54 -137 -137 -349 -185 -470 -47 -121 -90 -229 -95
-240 -25 -52 -160 -408 -160 -420 0 -8 10 -26 23 -41 l23 -26 -30 -79 c-29
-75 -33 -79 -62 -79 -17 0 -38 -8 -47 -18 -13 -14 -153 -359 -294 -722 -13
-36 -31 -78 -38 -95 -7 -16 -50 -124 -96 -240 -85 -214 -96 -263 -77 -335 8
-29 51 -79 88 -103 43 -28 119 -31 181 -9 55 20 799 313 854 337 17 7 84 34
150 59 152 60 215 85 240 95 11 5 40 16 65 26 25 10 59 23 75 31 17 7 71 28
120 48 50 19 131 50 180 69 50 19 100 38 112 42 52 15 88 -22 98 -99 19 -158
169 -249 319 -192 50 19 85 54 117 114 20 40 22 59 23 205 2 176 8 199 54 215
36 12 88 -10 99 -42 4 -11 7 -149 8 -306 1 -269 2 -288 23 -330 43 -92 109
-135 207 -135 101 1 196 70 220 160 5 17 9 216 10 442 1 384 3 414 20 433 10
11 88 47 174 81 86 34 224 89 306 121 247 98 215 92 274 48 64 -49 137 -73
217 -72 52 0 113 17 351 95 158 53 304 102 324 111 51 21 159 130 159 159 0 7
5 18 10 23 16 16 24 62 24 144 0 67 -11 197 -19 210 -2 3 -6 27 -9 54 -4 27
-9 52 -11 56 -2 3 -6 26 -10 50 -23 153 -129 497 -216 696 -84 194 -113 249
-272 519 -7 11 -14 22 -17 25 -3 3 -27 39 -55 80 -184 275 -463 572 -747 792
-99 77 -308 220 -398 272 -107 61 -285 146 -306 146 -13 0 -33 -9 -44 -20 -20
-20 -20 -20 -100 12 -72 28 -80 34 -80 57 0 50 -24 67 -152 109 -173 57 -317
92 -508 126 -56 9 -97 16 -125 21 -86 14 -212 14 -256 0z"/>
</g>
</svg>
